<svg xmlns="http://www.w3.org/2000/svg" xmlns:xlink="http://www.w3.org/1999/xlink" width="2000" zoomAndPan="magnify" viewBox="0 0 1500 1499.999933" height="2000" preserveAspectRatio="xMidYMid meet" version="1.0"><defs><g/><clipPath id="12548db84d"><path d="M 150 150 L 1350 150 L 1350 1350 L 150 1350 Z M 150 150 " clip-rule="nonzero"/></clipPath><clipPath id="8bbfa78bb0"><path d="M 220.5 150 L 1279.5 150 C 1318.4375 150 1350 181.5625 1350 220.5 L 1350 1279.5 C 1350 1318.4375 1318.4375 1350 1279.5 1350 L 220.5 1350 C 181.5625 1350 150 1318.4375 150 1279.5 L 150 220.5 C 150 181.5625 181.5625 150 220.5 150 Z M 220.5 150 " clip-rule="nonzero"/></clipPath><clipPath id="4f7b6b684f"><path d="M 0 0 L 1200 0 L 1200 1200 L 0 1200 Z M 0 0 " clip-rule="nonzero"/></clipPath><clipPath id="97dab9a11f"><path d="M 70.5 0 L 1129.5 0 C 1168.4375 0 1200 31.5625 1200 70.5 L 1200 1129.5 C 1200 1168.4375 1168.4375 1200 1129.5 1200 L 70.5 1200 C 31.5625 1200 0 1168.4375 0 1129.5 L 0 70.5 C 0 31.5625 31.5625 0 70.5 0 Z M 70.5 0 " clip-rule="nonzero"/></clipPath><clipPath id="2122d4cdf6"><rect x="0" width="1200" y="0" height="1200"/></clipPath><clipPath id="4b469c61f4"><rect x="0" width="970" y="0" height="708"/></clipPath></defs><rect x="-150" width="1800" fill="#ffffff" y="-149.999993" height="1799.99992" fill-opacity="1"/><rect x="-150" width="1800" fill="#ffffff" y="-149.999993" height="1799.99992" fill-opacity="1"/><g clip-path="url(#12548db84d)"><g clip-path="url(#8bbfa78bb0)"><g transform="matrix(1, 0, 0, 1, 150, 150)"><g clip-path="url(#2122d4cdf6)"><g clip-path="url(#4f7b6b684f)"><g clip-path="url(#97dab9a11f)"><rect x="-480" width="2160" fill="#8c3839" height="2159.999904" y="-479.999985" fill-opacity="1"/></g></g></g></g></g></g><g fill="#ffffff" fill-opacity="1"><g transform="translate(285.401024, 594.000982)"><g><path d="M 11.03125 -52.921875 L 11.03125 -295.25 L 33.078125 -295.25 L 33.078125 -220.5 L 66.375 -220.5 L 66.375 -214.984375 L 33.078125 -214.984375 L 33.078125 -63.71875 C 33.078125 -59.601562 33.148438 -54.863281 33.296875 -49.5 C 33.441406 -44.132812 33.914062 -38.695312 34.71875 -33.1875 C 35.53125 -27.675781 36.816406 -22.566406 38.578125 -17.859375 C 40.347656 -13.148438 42.847656 -9.363281 46.078125 -6.5 C 49.316406 -3.632812 53.4375 -2.203125 58.4375 -2.203125 C 57.257812 -0.585938 55.421875 0.546875 52.921875 1.203125 C 50.421875 1.867188 47.921875 2.203125 45.421875 2.203125 C 38.222656 2.203125 32.050781 -0.40625 26.90625 -5.625 C 21.757812 -10.84375 17.828125 -17.640625 15.109375 -26.015625 C 12.390625 -34.398438 11.03125 -43.367188 11.03125 -52.921875 Z M 11.03125 -52.921875 "/></g></g></g><g fill="#ffffff" fill-opacity="1"><g transform="translate(344.715312, 594.000982)"><g><path d="M 6.609375 -43.21875 C 6.609375 -53.65625 8.554688 -63.394531 12.453125 -72.4375 C 16.347656 -81.476562 21.53125 -89.894531 28 -97.6875 C 34.46875 -105.476562 41.5625 -112.644531 49.28125 -119.1875 C 57 -125.726562 64.71875 -131.753906 72.4375 -137.265625 C 80.15625 -142.773438 87.25 -147.769531 93.71875 -152.25 C 100.1875 -156.738281 105.363281 -160.78125 109.25 -164.375 C 113.144531 -167.976562 115.09375 -171.175781 115.09375 -173.96875 C 115.09375 -176.320312 114.175781 -178.125 112.34375 -179.375 C 110.507812 -180.625 108.414062 -181.25 106.0625 -181.25 C 101.351562 -181.25 96.570312 -179.78125 91.71875 -176.84375 C 86.875 -173.90625 81.914062 -170.265625 76.84375 -165.921875 C 71.769531 -161.585938 66.585938 -157.25 61.296875 -152.90625 C 56.003906 -148.570312 50.566406 -144.9375 44.984375 -142 C 39.398438 -139.0625 33.664062 -137.59375 27.78125 -137.59375 C 22.632812 -137.59375 18.59375 -139.351562 15.65625 -142.875 C 12.71875 -146.40625 11.25 -150.816406 11.25 -156.109375 C 11.25 -163.023438 13.007812 -169.753906 16.53125 -176.296875 C 20.0625 -182.835938 24.835938 -188.898438 30.859375 -194.484375 C 36.890625 -200.066406 43.765625 -204.988281 51.484375 -209.25 C 59.203125 -213.519531 67.285156 -216.828125 75.734375 -219.171875 C 84.191406 -221.523438 92.460938 -222.703125 100.546875 -222.703125 C 112.304688 -222.703125 122.554688 -220.609375 131.296875 -216.421875 C 140.046875 -212.234375 146.847656 -205.394531 151.703125 -195.90625 C 156.554688 -186.425781 158.984375 -173.75 158.984375 -157.875 L 158.984375 0 L 136.9375 0 L 136.9375 -53.796875 C 130.46875 -43.210938 122.859375 -33.691406 114.109375 -25.234375 C 105.359375 -16.785156 95.617188 -10.097656 84.890625 -5.171875 C 74.160156 -0.253906 62.546875 2.203125 50.046875 2.203125 C 41.234375 2.203125 33.554688 0.21875 27.015625 -3.75 C 20.472656 -7.71875 15.4375 -13.15625 11.90625 -20.0625 C 8.375 -26.96875 6.609375 -34.6875 6.609375 -43.21875 Z M 119.734375 -173.75 C 119.734375 -170.070312 117.675781 -166.03125 113.5625 -161.625 C 109.445312 -157.21875 104.15625 -152.332031 97.6875 -146.96875 C 91.21875 -141.601562 84.304688 -135.648438 76.953125 -129.109375 C 69.597656 -122.566406 62.6875 -115.285156 56.21875 -107.265625 C 49.757812 -99.253906 44.46875 -90.398438 40.34375 -80.703125 C 36.226562 -71.003906 34.171875 -60.347656 34.171875 -48.734375 C 34.171875 -41.523438 35.421875 -34.941406 37.921875 -28.984375 C 40.421875 -23.035156 44.316406 -18.257812 49.609375 -14.65625 C 54.898438 -11.0625 61.664062 -9.265625 69.90625 -9.265625 C 79.3125 -9.265625 87.6875 -11.394531 95.03125 -15.65625 C 102.382812 -19.914062 108.707031 -25.425781 114 -32.1875 C 119.289062 -38.957031 123.625 -46.160156 127 -53.796875 C 130.382812 -61.441406 132.882812 -68.71875 134.5 -75.625 C 136.125 -82.539062 136.9375 -88.128906 136.9375 -92.390625 L 136.9375 -162.953125 C 136.9375 -166.628906 136.859375 -170.890625 136.703125 -175.734375 C 136.554688 -180.585938 136.003906 -185.515625 135.046875 -190.515625 C 134.097656 -195.515625 132.335938 -200.109375 129.765625 -204.296875 C 127.191406 -208.484375 123.585938 -211.863281 118.953125 -214.4375 C 114.328125 -217.007812 108.191406 -218.296875 100.546875 -218.296875 C 92.898438 -218.296875 85.179688 -217.082031 77.390625 -214.65625 C 69.597656 -212.226562 62.46875 -208.882812 56 -204.625 C 49.539062 -200.363281 44.363281 -195.363281 40.46875 -189.625 C 36.570312 -183.894531 34.625 -177.722656 34.625 -171.109375 C 34.625 -166.992188 35.578125 -163.171875 37.484375 -159.640625 C 39.390625 -156.109375 42.40625 -154.34375 46.53125 -154.34375 C 49.90625 -154.34375 53.394531 -155.410156 57 -157.546875 C 60.601562 -159.679688 64.351562 -162.289062 68.25 -165.375 C 72.144531 -168.457031 76.113281 -171.539062 80.15625 -174.625 C 84.195312 -177.71875 88.421875 -180.328125 92.828125 -182.453125 C 97.242188 -184.585938 101.726562 -185.65625 106.28125 -185.65625 C 110.539062 -185.65625 113.847656 -184.441406 116.203125 -182.015625 C 118.554688 -179.597656 119.734375 -176.84375 119.734375 -173.75 Z M 119.734375 -173.75 "/></g></g></g><g fill="#ffffff" fill-opacity="1"><g transform="translate(496.639461, 594.000982)"><g><path d="M 4.40625 -220.5 L 34.84375 -220.5 C 37.78125 -218.59375 40.203125 -215.648438 42.109375 -211.671875 C 44.023438 -207.703125 44.984375 -202.707031 44.984375 -196.6875 C 44.984375 -189.332031 43.660156 -182.203125 41.015625 -175.296875 C 38.367188 -168.390625 35.28125 -161.8125 31.75 -155.5625 C 28.21875 -149.3125 25.128906 -143.503906 22.484375 -138.140625 C 19.835938 -132.773438 18.515625 -127.960938 18.515625 -123.703125 C 18.515625 -121.203125 18.992188 -118.957031 19.953125 -116.96875 C 20.910156 -114.988281 22.640625 -114 25.140625 -114 C 27.785156 -114 30.359375 -115.285156 32.859375 -117.859375 C 35.359375 -120.429688 37.851562 -123.628906 40.34375 -127.453125 C 42.84375 -131.273438 45.453125 -135.09375 48.171875 -138.90625 C 50.898438 -142.726562 53.734375 -145.925781 56.671875 -148.5 C 59.609375 -151.070312 62.691406 -152.359375 65.921875 -152.359375 C 68.421875 -152.359375 70.515625 -151.625 72.203125 -150.15625 C 73.898438 -148.6875 74.75 -146.628906 74.75 -143.984375 C 74.75 -140.015625 73.898438 -135.382812 72.203125 -130.09375 C 70.515625 -124.800781 68.601562 -118.847656 66.46875 -112.234375 C 64.34375 -105.617188 62.582031 -98.453125 61.1875 -90.734375 C 59.789062 -83.015625 59.3125 -74.820312 59.75 -66.15625 C 60.34375 -56.738281 62.21875 -48.390625 65.375 -41.109375 C 68.539062 -33.835938 73.578125 -29.101562 80.484375 -26.90625 C 85.335938 -39.101562 90.257812 -51.519531 95.25 -64.15625 C 100.25 -76.800781 104.878906 -89.519531 109.140625 -102.3125 C 113.410156 -115.101562 116.832031 -127.816406 119.40625 -140.453125 C 121.976562 -153.097656 123.265625 -165.445312 123.265625 -177.5 C 123.265625 -184.851562 122.5625 -192.019531 121.15625 -199 C 119.757812 -205.976562 117.003906 -213.144531 112.890625 -220.5 L 160.296875 -220.5 C 159.566406 -218.4375 157.765625 -213.84375 154.890625 -206.71875 C 152.023438 -199.59375 148.5 -190.625 144.3125 -179.8125 C 140.125 -169.007812 135.53125 -157.03125 130.53125 -143.875 C 125.53125 -130.71875 120.382812 -117.046875 115.09375 -102.859375 C 109.800781 -88.671875 104.765625 -74.554688 99.984375 -60.515625 C 95.210938 -46.484375 90.914062 -33.21875 87.09375 -20.71875 C 83.269531 -8.226562 80.21875 2.828125 77.9375 12.453125 C 75.664062 22.085938 74.53125 29.625 74.53125 35.0625 C 74.53125 45.207031 75.890625 54.910156 78.609375 64.171875 C 81.328125 73.429688 84.742188 81.367188 88.859375 87.984375 C 92.972656 94.597656 97.164062 99.15625 101.4375 101.65625 L 66.59375 101.65625 C 63.5 99.15625 60.957031 94.335938 58.96875 87.203125 C 56.988281 80.078125 56 72.25 56 63.71875 C 56 54.019531 57.429688 43.546875 60.296875 32.296875 C 63.171875 21.054688 66.8125 9.335938 71.21875 -2.859375 C 65.488281 -5.503906 59.941406 -9.328125 54.578125 -14.328125 C 49.210938 -19.328125 44.835938 -25.5 41.453125 -32.84375 C 38.066406 -40.195312 36.375 -48.503906 36.375 -57.765625 C 36.375 -64.378906 37.367188 -70.992188 39.359375 -77.609375 C 41.347656 -84.222656 43.847656 -90.617188 46.859375 -96.796875 C 49.867188 -102.972656 52.878906 -108.78125 55.890625 -114.21875 C 58.910156 -119.65625 61.410156 -124.648438 63.390625 -129.203125 C 65.378906 -133.765625 66.375 -137.664062 66.375 -140.90625 C 66.375 -142.664062 65.96875 -143.910156 65.15625 -144.640625 C 64.34375 -145.378906 63.425781 -145.75 62.40625 -145.75 C 60.34375 -145.75 58.242188 -144.535156 56.109375 -142.109375 C 53.984375 -139.679688 51.707031 -136.738281 49.28125 -133.28125 C 46.851562 -129.832031 44.316406 -126.34375 41.671875 -122.8125 C 39.023438 -119.289062 36.15625 -116.316406 33.0625 -113.890625 C 29.976562 -111.460938 26.75 -110.25 23.375 -110.25 C 19.550781 -110.25 16.753906 -111.898438 14.984375 -115.203125 C 13.222656 -118.515625 12.34375 -121.9375 12.34375 -125.46875 C 12.34375 -130.613281 12.894531 -135.171875 14 -139.140625 C 15.101562 -143.109375 16.351562 -147.113281 17.75 -151.15625 C 19.144531 -155.195312 20.394531 -159.898438 21.5 -165.265625 C 22.601562 -170.628906 23.15625 -177.28125 23.15625 -185.21875 C 23.15625 -189.476562 22.53125 -193.957031 21.28125 -198.65625 C 20.03125 -203.363281 18.046875 -207.703125 15.328125 -211.671875 C 12.609375 -215.648438 8.96875 -218.59375 4.40625 -220.5 Z M 4.40625 -220.5 "/></g></g></g><g fill="#ffffff" fill-opacity="1"><g transform="translate(643.271611, 594.000982)"><g><path d="M 6.609375 -67.03125 C 8.523438 -59.53125 10.988281 -51.992188 14 -44.421875 C 17.007812 -36.859375 20.71875 -29.914062 25.125 -23.59375 C 29.539062 -17.269531 34.945312 -12.195312 41.34375 -8.375 C 47.738281 -4.550781 55.347656 -2.640625 64.171875 -2.640625 C 70.484375 -2.640625 76.800781 -4.328125 83.125 -7.703125 C 89.445312 -11.085938 95.472656 -15.71875 101.203125 -21.59375 C 106.941406 -27.476562 112.015625 -34.28125 116.421875 -42 C 120.828125 -49.71875 124.316406 -57.875 126.890625 -66.46875 C 129.460938 -75.070312 130.75 -83.785156 130.75 -92.609375 C 130.75 -98.046875 129.867188 -103.628906 128.109375 -109.359375 C 126.347656 -115.097656 123.554688 -119.988281 119.734375 -124.03125 C 115.910156 -128.070312 110.835938 -130.09375 104.515625 -130.09375 C 98.785156 -130.09375 93.457031 -128.878906 88.53125 -126.453125 C 83.601562 -124.023438 78.710938 -121.191406 73.859375 -117.953125 C 69.015625 -114.722656 63.910156 -111.894531 58.546875 -109.46875 C 53.179688 -107.050781 47.191406 -105.84375 40.578125 -105.84375 C 33.804688 -105.84375 27.882812 -107.710938 22.8125 -111.453125 C 17.75 -115.203125 13.78125 -120.09375 10.90625 -126.125 C 8.039062 -132.15625 6.609375 -138.550781 6.609375 -145.3125 C 6.609375 -156.332031 9.109375 -166.546875 14.109375 -175.953125 C 19.109375 -185.367188 25.867188 -193.566406 34.390625 -200.546875 C 42.921875 -207.523438 52.625 -212.960938 63.5 -216.859375 C 74.382812 -220.753906 85.707031 -222.703125 97.46875 -222.703125 C 107.457031 -222.703125 116.785156 -221.269531 125.453125 -218.40625 C 134.128906 -215.539062 141.410156 -212.195312 147.296875 -208.375 L 147.296875 -173.53125 C 146.117188 -178.238281 143.765625 -183.125 140.234375 -188.1875 C 136.710938 -193.257812 132.34375 -198 127.125 -202.40625 C 121.90625 -206.820312 116.097656 -210.390625 109.703125 -213.109375 C 103.304688 -215.828125 96.578125 -217.1875 89.515625 -217.1875 C 78.347656 -217.1875 68.425781 -214.539062 59.75 -209.25 C 51.082031 -203.957031 44.285156 -196.789062 39.359375 -187.75 C 34.429688 -178.707031 31.96875 -168.382812 31.96875 -156.78125 C 31.96875 -151.039062 32.992188 -145.453125 35.046875 -140.015625 C 37.109375 -134.578125 40.125 -130.09375 44.09375 -126.5625 C 48.0625 -123.039062 52.914062 -121.28125 58.65625 -121.28125 C 64.675781 -121.28125 69.816406 -121.976562 74.078125 -123.375 C 78.347656 -124.769531 82.316406 -126.347656 85.984375 -128.109375 C 89.660156 -129.867188 93.484375 -131.445312 97.453125 -132.84375 C 101.429688 -134.25 106.066406 -134.953125 111.359375 -134.953125 C 120.023438 -134.953125 127.628906 -132.960938 134.171875 -128.984375 C 140.710938 -125.015625 145.820312 -119.46875 149.5 -112.34375 C 153.175781 -105.21875 155.015625 -96.945312 155.015625 -87.53125 C 155.015625 -77.976562 153.175781 -68.789062 149.5 -59.96875 C 145.820312 -51.15625 140.75 -42.960938 134.28125 -35.390625 C 127.8125 -27.816406 120.425781 -21.238281 112.125 -15.65625 C 103.820312 -10.070312 95 -5.695312 85.65625 -2.53125 C 76.320312 0.625 66.953125 2.203125 57.546875 2.203125 C 47.410156 2.203125 37.820312 1.25 28.78125 -0.65625 C 19.738281 -2.570312 12.347656 -5.804688 6.609375 -10.359375 Z M 6.609375 -67.03125 "/></g></g></g><g fill="#ffffff" fill-opacity="1"><g transform="translate(786.816814, 594.000982)"><g><path d="M 69.453125 2.203125 C 59.160156 2.203125 50.117188 -0.289062 42.328125 -5.28125 C 34.546875 -10.28125 28.007812 -16.96875 22.71875 -25.34375 C 17.425781 -33.726562 13.414062 -43.066406 10.6875 -53.359375 C 7.96875 -63.648438 6.609375 -74.160156 6.609375 -84.890625 C 6.609375 -96.941406 8.375 -109.363281 11.90625 -122.15625 C 15.4375 -134.945312 20.4375 -147.332031 26.90625 -159.3125 C 33.375 -171.289062 41.125 -182.054688 50.15625 -191.609375 C 59.195312 -201.171875 69.300781 -208.742188 80.46875 -214.328125 C 91.644531 -219.910156 103.628906 -222.703125 116.421875 -222.703125 C 127.890625 -222.703125 137.039062 -220.492188 143.875 -216.078125 C 150.707031 -211.671875 155.628906 -205.976562 158.640625 -199 C 161.660156 -192.019531 163.171875 -184.488281 163.171875 -176.40625 C 163.171875 -168.3125 161.441406 -159.5625 157.984375 -150.15625 C 154.535156 -140.75 149.578125 -131.453125 143.109375 -122.265625 C 136.640625 -113.078125 128.847656 -104.695312 119.734375 -97.125 C 110.617188 -89.5625 100.289062 -83.5 88.75 -78.9375 C 77.207031 -74.382812 64.675781 -72.109375 51.15625 -72.109375 C 47.1875 -72.109375 43.84375 -72.253906 41.125 -72.546875 C 38.40625 -72.835938 35.941406 -73.28125 33.734375 -73.875 C 35.054688 -66.226562 37.1875 -58.726562 40.125 -51.375 C 43.070312 -44.019531 46.820312 -37.441406 51.375 -31.640625 C 55.9375 -25.835938 61.410156 -21.207031 67.796875 -17.75 C 74.191406 -14.289062 81.65625 -12.5625 90.1875 -12.5625 C 99.007812 -12.5625 107.351562 -14.507812 115.21875 -18.40625 C 123.082031 -22.300781 129.988281 -27.265625 135.9375 -33.296875 C 141.894531 -39.328125 146.597656 -45.6875 150.046875 -52.375 C 153.503906 -59.0625 155.234375 -65.269531 155.234375 -71 L 159.859375 -71 C 159.859375 -66.738281 158.753906 -61.519531 156.546875 -55.34375 C 154.347656 -49.164062 150.96875 -42.734375 146.40625 -36.046875 C 141.851562 -29.359375 136.046875 -23.109375 128.984375 -17.296875 C 121.929688 -11.492188 113.441406 -6.789062 103.515625 -3.1875 C 93.597656 0.40625 82.242188 2.203125 69.453125 2.203125 Z M 33.078125 -79.375 C 38.367188 -78.050781 44.25 -77.390625 50.71875 -77.390625 C 60.414062 -77.390625 69.632812 -79.703125 78.375 -84.328125 C 87.125 -88.960938 95.140625 -95.140625 102.421875 -102.859375 C 109.703125 -110.578125 116.0625 -119.210938 121.5 -128.765625 C 126.9375 -138.328125 131.125 -148.03125 134.0625 -157.875 C 137 -167.726562 138.46875 -177.0625 138.46875 -185.875 C 138.46875 -195.289062 136.410156 -203.15625 132.296875 -209.46875 C 128.179688 -215.789062 122.15625 -218.953125 114.21875 -218.953125 C 105.988281 -218.953125 97.867188 -216.488281 89.859375 -211.5625 C 81.847656 -206.644531 74.347656 -199.921875 67.359375 -191.390625 C 60.378906 -182.867188 54.242188 -173.273438 48.953125 -162.609375 C 43.660156 -151.953125 39.503906 -140.816406 36.484375 -129.203125 C 33.472656 -117.597656 31.96875 -106.28125 31.96875 -95.25 C 31.96875 -92.75 32.039062 -90.140625 32.1875 -87.421875 C 32.332031 -84.703125 32.628906 -82.019531 33.078125 -79.375 Z M 33.078125 -79.375 "/></g></g></g><g fill="#ffffff" fill-opacity="1"><g transform="translate(938.520463, 594.000982)"><g><path d="M 69.453125 2.203125 C 59.160156 2.203125 50.117188 -0.289062 42.328125 -5.28125 C 34.546875 -10.28125 28.007812 -16.96875 22.71875 -25.34375 C 17.425781 -33.726562 13.414062 -43.066406 10.6875 -53.359375 C 7.96875 -63.648438 6.609375 -74.160156 6.609375 -84.890625 C 6.609375 -96.941406 8.375 -109.363281 11.90625 -122.15625 C 15.4375 -134.945312 20.4375 -147.332031 26.90625 -159.3125 C 33.375 -171.289062 41.125 -182.054688 50.15625 -191.609375 C 59.195312 -201.171875 69.300781 -208.742188 80.46875 -214.328125 C 91.644531 -219.910156 103.628906 -222.703125 116.421875 -222.703125 C 127.890625 -222.703125 137.039062 -220.492188 143.875 -216.078125 C 150.707031 -211.671875 155.628906 -205.976562 158.640625 -199 C 161.660156 -192.019531 163.171875 -184.488281 163.171875 -176.40625 C 163.171875 -168.3125 161.441406 -159.5625 157.984375 -150.15625 C 154.535156 -140.75 149.578125 -131.453125 143.109375 -122.265625 C 136.640625 -113.078125 128.847656 -104.695312 119.734375 -97.125 C 110.617188 -89.5625 100.289062 -83.5 88.75 -78.9375 C 77.207031 -74.382812 64.675781 -72.109375 51.15625 -72.109375 C 47.1875 -72.109375 43.84375 -72.253906 41.125 -72.546875 C 38.40625 -72.835938 35.941406 -73.28125 33.734375 -73.875 C 35.054688 -66.226562 37.1875 -58.726562 40.125 -51.375 C 43.070312 -44.019531 46.820312 -37.441406 51.375 -31.640625 C 55.9375 -25.835938 61.410156 -21.207031 67.796875 -17.75 C 74.191406 -14.289062 81.65625 -12.5625 90.1875 -12.5625 C 99.007812 -12.5625 107.351562 -14.507812 115.21875 -18.40625 C 123.082031 -22.300781 129.988281 -27.265625 135.9375 -33.296875 C 141.894531 -39.328125 146.597656 -45.6875 150.046875 -52.375 C 153.503906 -59.0625 155.234375 -65.269531 155.234375 -71 L 159.859375 -71 C 159.859375 -66.738281 158.753906 -61.519531 156.546875 -55.34375 C 154.347656 -49.164062 150.96875 -42.734375 146.40625 -36.046875 C 141.851562 -29.359375 136.046875 -23.109375 128.984375 -17.296875 C 121.929688 -11.492188 113.441406 -6.789062 103.515625 -3.1875 C 93.597656 0.40625 82.242188 2.203125 69.453125 2.203125 Z M 33.078125 -79.375 C 38.367188 -78.050781 44.25 -77.390625 50.71875 -77.390625 C 60.414062 -77.390625 69.632812 -79.703125 78.375 -84.328125 C 87.125 -88.960938 95.140625 -95.140625 102.421875 -102.859375 C 109.703125 -110.578125 116.0625 -119.210938 121.5 -128.765625 C 126.9375 -138.328125 131.125 -148.03125 134.0625 -157.875 C 137 -167.726562 138.46875 -177.0625 138.46875 -185.875 C 138.46875 -195.289062 136.410156 -203.15625 132.296875 -209.46875 C 128.179688 -215.789062 122.15625 -218.953125 114.21875 -218.953125 C 105.988281 -218.953125 97.867188 -216.488281 89.859375 -211.5625 C 81.847656 -206.644531 74.347656 -199.921875 67.359375 -191.390625 C 60.378906 -182.867188 54.242188 -173.273438 48.953125 -162.609375 C 43.660156 -151.953125 39.503906 -140.816406 36.484375 -129.203125 C 33.472656 -117.597656 31.96875 -106.28125 31.96875 -95.25 C 31.96875 -92.75 32.039062 -90.140625 32.1875 -87.421875 C 32.332031 -84.703125 32.628906 -82.019531 33.078125 -79.375 Z M 33.078125 -79.375 "/></g></g></g><g fill="#ffffff" fill-opacity="1"><g transform="translate(1090.224113, 594.000982)"><g><path d="M 11.03125 0 L 11.03125 -220.5 L 33.078125 -220.5 L 33.078125 -111.796875 C 34.691406 -121.203125 37.113281 -131.015625 40.34375 -141.234375 C 43.582031 -151.453125 47.703125 -161.410156 52.703125 -171.109375 C 57.703125 -180.804688 63.65625 -189.515625 70.5625 -197.234375 C 77.46875 -204.953125 85.476562 -211.125 94.59375 -215.75 C 103.707031 -220.382812 113.925781 -222.703125 125.25 -222.703125 C 131.125 -222.703125 135.75 -222.257812 139.125 -221.375 C 142.507812 -220.5 145.378906 -219.472656 147.734375 -218.296875 L 147.734375 -189.40625 C 142.441406 -192.34375 137.367188 -194.582031 132.515625 -196.125 C 127.671875 -197.675781 122.453125 -198.453125 116.859375 -198.453125 C 105.253906 -198.453125 95.078125 -196.28125 86.328125 -191.9375 C 77.578125 -187.601562 70.148438 -181.6875 64.046875 -174.1875 C 57.953125 -166.695312 52.882812 -158.171875 48.84375 -148.609375 C 44.800781 -139.054688 41.640625 -128.953125 39.359375 -118.296875 C 37.078125 -107.640625 35.457031 -97.019531 34.5 -86.4375 C 33.550781 -75.851562 33.078125 -65.859375 33.078125 -56.453125 L 33.078125 0 Z M 11.03125 0 "/></g></g></g><g transform="matrix(1, 0, 0, 1, 276, 612)"><g clip-path="url(#4b469c61f4)"><g fill="#ffffff" fill-opacity="1"><g transform="translate(1.195407, 536.853719)"><g><path d="M 18.421875 0 L 18.421875 -532.578125 L 55.28125 -532.578125 L 55.28125 -7.375 C 87.71875 -7.375 119.046875 -8.351562 149.265625 -10.3125 C 179.484375 -12.28125 208.109375 -15.84375 235.140625 -21 C 262.171875 -26.164062 286.742188 -33.539062 308.859375 -43.125 L 308.859375 0 Z M 18.421875 0 "/></g></g></g><g fill="#ffffff" fill-opacity="1"><g transform="translate(307.834698, 536.853719)"><g><path d="M 166.953125 -238.453125 C 153.191406 -238.453125 139.800781 -235.132812 126.78125 -228.5 C 113.757812 -221.875 101.84375 -212.722656 91.03125 -201.046875 C 80.21875 -189.378906 71.3125 -175.804688 64.3125 -160.328125 C 57.3125 -144.847656 52.828125 -128.195312 50.859375 -110.375 C 48.890625 -92.5625 50.175781 -74.257812 54.71875 -55.46875 C 59.269531 -36.675781 67.8125 -18.1875 80.34375 0 L 30.953125 0 C 28.003906 -4.914062 25.300781 -11.425781 22.84375 -19.53125 C 20.394531 -27.644531 18.429688 -36.550781 16.953125 -46.25 C 15.484375 -55.957031 14.75 -65.601562 14.75 -75.1875 C 14.75 -90.664062 17.203125 -106.144531 22.109375 -121.625 C 27.023438 -137.101562 33.351562 -152.273438 41.09375 -167.140625 C 48.832031 -182.003906 57 -196.253906 65.59375 -209.890625 C 74.195312 -223.523438 82.1875 -236.300781 89.5625 -248.21875 C 96.9375 -260.144531 102.710938 -270.894531 106.890625 -280.46875 C 109.835938 -287.351562 111.921875 -292.757812 113.140625 -296.6875 C 114.367188 -300.625 113.507812 -302.59375 110.5625 -302.59375 C 107.375 -302.59375 104.363281 -300.441406 101.53125 -296.140625 C 98.707031 -291.835938 95.632812 -286.613281 92.3125 -280.46875 C 89 -274.332031 85.253906 -268.128906 81.078125 -261.859375 C 76.898438 -255.597656 71.984375 -250.316406 66.328125 -246.015625 C 60.679688 -241.710938 53.925781 -239.5625 46.0625 -239.5625 C 39.925781 -239.5625 34.769531 -242.203125 30.59375 -247.484375 C 26.414062 -252.765625 24.328125 -259.21875 24.328125 -266.84375 C 24.328125 -279.375 26.472656 -291.039062 30.765625 -301.84375 C 35.066406 -312.65625 40.164062 -322.972656 46.0625 -332.796875 C 51.96875 -342.628906 57.5 -352.21875 62.65625 -361.5625 C 73.46875 -381.457031 84.03125 -399.453125 94.34375 -415.546875 C 104.664062 -431.640625 114.1875 -447.550781 122.90625 -463.28125 C 131.632812 -479.007812 139.070312 -496.085938 145.21875 -514.515625 C 145.707031 -517.460938 144.785156 -519.425781 142.453125 -520.40625 C 140.117188 -521.394531 137.226562 -521.890625 133.78125 -521.890625 L 106.890625 -521.890625 L 106.890625 -532.578125 L 190.171875 -532.578125 L 325.8125 0 L 285.265625 0 L 239.9375 -179.484375 C 231.582031 -200.867188 220.953125 -216.039062 208.046875 -225 C 195.148438 -233.96875 181.453125 -238.453125 166.953125 -238.453125 Z M 60.078125 -302.953125 C 58.359375 -297.054688 58.664062 -292.203125 61 -288.390625 C 63.332031 -284.585938 65.847656 -282.6875 68.546875 -282.6875 C 73.222656 -282.6875 77.648438 -284.34375 81.828125 -287.65625 C 86.003906 -290.976562 90.054688 -294.726562 93.984375 -298.90625 C 97.910156 -303.082031 101.835938 -306.828125 105.765625 -310.140625 C 109.703125 -313.460938 113.640625 -315.125 117.578125 -315.125 C 122.484375 -315.125 124.8125 -312.421875 124.5625 -307.015625 C 124.320312 -301.609375 122.296875 -294.113281 118.484375 -284.53125 C 114.679688 -274.945312 109.953125 -263.890625 104.296875 -251.359375 C 98.648438 -238.828125 92.753906 -225.4375 86.609375 -211.1875 C 93.242188 -218.3125 101.046875 -225.4375 110.015625 -232.5625 C 118.984375 -239.6875 128.441406 -246.195312 138.390625 -252.09375 C 148.347656 -257.988281 158.238281 -262.71875 168.0625 -266.28125 C 177.894531 -269.84375 186.988281 -271.625 195.34375 -271.625 C 204.675781 -271.625 212.171875 -269.90625 217.828125 -266.46875 L 166.953125 -466.59375 C 165.484375 -472.5 163.765625 -478.953125 161.796875 -485.953125 C 159.828125 -492.953125 157.125 -499.15625 153.6875 -504.5625 C 148.28125 -489.570312 141.460938 -474.519531 133.234375 -459.40625 C 125.003906 -444.300781 116.40625 -428.757812 107.4375 -412.78125 C 98.46875 -396.8125 89.804688 -379.796875 81.453125 -361.734375 C 73.097656 -343.679688 65.972656 -324.085938 60.078125 -302.953125 Z M 60.078125 -302.953125 "/></g></g></g><g fill="#ffffff" fill-opacity="1"><g transform="translate(627.741981, 536.853719)"><g><path d="M 14.75 -44.59375 C 14.75 -64.738281 18.554688 -82.984375 26.171875 -99.328125 C 33.785156 -115.671875 44.039062 -130.472656 56.9375 -143.734375 C 69.84375 -157.003906 84.28125 -169.101562 100.25 -180.03125 C 116.21875 -190.96875 132.800781 -201.046875 150 -210.265625 C 167.195312 -219.484375 183.78125 -228.207031 199.75 -236.4375 C 215.726562 -244.664062 230.164062 -252.769531 243.0625 -260.75 C 255.96875 -268.738281 266.226562 -276.910156 273.84375 -285.265625 C 281.457031 -293.617188 285.265625 -302.460938 285.265625 -311.796875 C 285.265625 -320.398438 283.050781 -326.421875 278.625 -329.859375 C 274.207031 -333.296875 269.421875 -335.015625 264.265625 -335.015625 C 250.003906 -335.015625 236.484375 -332.617188 223.703125 -327.828125 C 210.929688 -323.046875 198.832031 -317.085938 187.40625 -309.953125 C 175.988281 -302.828125 164.929688 -295.640625 154.234375 -288.390625 C 143.546875 -281.148438 132.984375 -275.132812 122.546875 -270.34375 C 112.109375 -265.550781 101.601562 -263.15625 91.03125 -263.15625 C 81.9375 -263.15625 75.671875 -266.039062 72.234375 -271.8125 C 68.796875 -277.582031 67.078125 -283.539062 67.078125 -289.6875 C 67.078125 -297.550781 71.066406 -306.765625 79.046875 -317.328125 C 87.035156 -327.898438 97.539062 -339.265625 110.5625 -351.421875 C 123.59375 -363.585938 137.90625 -376.117188 153.5 -389.015625 C 169.101562 -401.921875 184.707031 -414.820312 200.3125 -427.71875 C 215.914062 -440.613281 230.226562 -453.019531 243.25 -464.9375 C 256.269531 -476.851562 266.769531 -487.910156 274.75 -498.109375 C 282.738281 -508.304688 286.734375 -517.09375 286.734375 -524.46875 C 265.847656 -524.46875 247.296875 -524.585938 231.078125 -524.828125 C 214.867188 -525.078125 200.128906 -525.078125 186.859375 -524.828125 C 173.585938 -524.585938 160.992188 -523.851562 149.078125 -522.625 C 137.160156 -521.394531 125.0625 -519.363281 112.78125 -516.53125 C 100.5 -513.707031 87.226562 -509.835938 72.96875 -504.921875 C 58.71875 -500.015625 42.625 -493.628906 24.6875 -485.765625 L 24.6875 -532.578125 L 334.28125 -532.578125 C 334.28125 -517.335938 330.039062 -503.328125 321.5625 -490.546875 C 313.09375 -477.773438 301.914062 -465.800781 288.03125 -454.625 C 274.144531 -443.445312 258.910156 -432.941406 242.328125 -423.109375 C 225.742188 -413.285156 209.160156 -403.703125 192.578125 -394.359375 C 175.992188 -385.023438 160.757812 -375.6875 146.875 -366.34375 C 132.988281 -357.007812 121.804688 -347.488281 113.328125 -337.78125 C 104.859375 -328.082031 100.625 -317.828125 100.625 -307.015625 C 100.625 -301.359375 101.664062 -295.890625 103.75 -290.609375 C 105.84375 -285.328125 109.585938 -282.6875 114.984375 -282.6875 C 121.617188 -282.6875 129.539062 -285.019531 138.75 -289.6875 C 147.96875 -294.351562 158.101562 -300.1875 169.15625 -307.1875 C 180.21875 -314.195312 191.890625 -321.140625 204.171875 -328.015625 C 216.460938 -334.898438 229.054688 -340.675781 241.953125 -345.34375 C 254.859375 -350.007812 267.695312 -352.34375 280.46875 -352.34375 C 289.5625 -352.34375 297.609375 -349.945312 304.609375 -345.15625 C 311.617188 -340.363281 315.125 -332.804688 315.125 -322.484375 C 315.125 -312.660156 311.5 -303.328125 304.25 -294.484375 C 297 -285.640625 287.226562 -277.039062 274.9375 -268.6875 C 262.65625 -260.332031 248.835938 -251.851562 233.484375 -243.25 C 218.128906 -234.644531 202.28125 -225.613281 185.9375 -216.15625 C 169.601562 -206.695312 153.753906 -196.5 138.390625 -185.5625 C 123.035156 -174.632812 109.210938 -162.597656 96.921875 -149.453125 C 84.640625 -136.304688 74.875 -121.804688 67.625 -105.953125 C 60.382812 -90.109375 56.765625 -72.601562 56.765625 -53.4375 C 56.765625 -39.925781 58.238281 -28.867188 61.1875 -20.265625 C 64.132812 -11.671875 67.570312 -7.375 71.5 -7.375 C 101.226562 -7.375 131.203125 -9.210938 161.421875 -12.890625 C 191.648438 -16.578125 221.078125 -21.367188 249.703125 -27.265625 C 278.328125 -33.171875 305.171875 -39.191406 330.234375 -45.328125 L 330.234375 0 L 20.265625 0 C 17.804688 -7.613281 16.269531 -14.738281 15.65625 -21.375 C 15.050781 -28.007812 14.75 -35.75 14.75 -44.59375 Z M 14.75 -44.59375 "/></g></g></g></g></g></svg>